<?xml version="1.0" encoding="utf-8"?>
<!-- Generator: Adobe Illustrator 26.0.3, SVG Export Plug-In . SVG Version: 6.00 Build 0)  -->
<svg version="1.1" id="레이어_1" xmlns="http://www.w3.org/2000/svg" xmlns:xlink="http://www.w3.org/1999/xlink" x="0px"
	 y="0px" viewBox="0 0 40 40" style="enable-background:new 0 0 40 40;" xml:space="preserve">
<style type="text/css">
	.st0{fill:#101111;}
</style>
<path class="st0" d="M37.2,23L34,19.4V14c0-7.7-6.3-14-14-14S6,6.3,6,14v5.4L2.8,23c-3.4,3.9-0.7,10,4.5,10h4.8c0.5,3.9,3.9,7,7.9,7
	s7.4-3.1,7.9-7h4.8C37.9,33,40.6,26.9,37.2,23z M20,36c-1.9,0-3.4-1.3-3.9-3h7.7C23.4,34.7,21.9,36,20,36z M34.5,27.7
	c-0.2,0.4-0.7,1.2-1.8,1.2H7.3c-1.2,0-1.7-0.8-1.8-1.2c-0.2-0.4-0.4-1.3,0.3-2.1L9,22l1-1.1v-1.5V14c0-5.5,4.5-10,10-10
	s10,4.5,10,10v5.4v1.5l1,1.1l3.2,3.6C35,26.5,34.7,27.4,34.5,27.7z"/>
</svg>
