<?xml version="1.0" encoding="utf-8"?>
<!-- Generator: Adobe Illustrator 26.0.3, SVG Export Plug-In . SVG Version: 6.00 Build 0)  -->
<svg version="1.1" id="레이어_1" xmlns="http://www.w3.org/2000/svg" xmlns:xlink="http://www.w3.org/1999/xlink" x="0px"
	 y="0px" viewBox="0 0 32 32" style="enable-background:new 0 0 32 32;" xml:space="preserve">
<style type="text/css">
	.st0{fill:#111111;}
</style>
<g>
	<g>
		<path class="st0" d="M16,32.1c-2.5,0-4.5-2-4.5-4.5v-1c-0.9-0.4-1.7-0.8-2.4-1.4l-0.8,0.5c-2.1,1.2-5,0.5-6.2-1.6
			c-0.6-1-0.7-2.2-0.4-3.4c0.3-1.2,1.1-2.2,2.1-2.7l0.8-0.5c-0.1-0.5-0.1-1-0.1-1.4s0-0.9,0.1-1.4l-0.8-0.5c-1-0.6-1.8-1.6-2.1-2.7
			C1.3,10.2,1.5,9.1,2.1,8c1.3-2.2,4-2.9,6.1-1.7l0.8,0.5c0.8-0.6,1.6-1.1,2.4-1.4V4.4c0-2.5,2-4.5,4.5-4.5s4.5,2,4.5,4.5v1
			c0.9,0.4,1.7,0.8,2.4,1.4l0.8-0.5c1-0.6,2.3-0.7,3.4-0.4c1.2,0.3,2.2,1.1,2.7,2.1c0.6,1,0.7,2.2,0.4,3.4c-0.3,1.2-1.1,2.2-2.1,2.7
			l-0.8,0.5c0,0.4,0.1,0.9,0.1,1.4c0,0.5,0,1,0,1.4l0.8,0.5c1,0.6,1.8,1.6,2.1,2.7c0.3,1.2,0.2,2.4-0.4,3.4c-0.6,1-1.6,1.8-2.7,2.1
			c-1.2,0.3-2.4,0.2-3.4-0.4l-0.8-0.5c-0.8,0.6-1.6,1.1-2.4,1.4v0.9C20.5,30.1,18.5,32.1,16,32.1z M9.2,21.9c0.4,0,0.7,0.1,1,0.4
			c1,0.9,2,1.5,3.3,1.9c0.6,0.2,1,0.8,1,1.4v2c0,0.9,0.6,1.5,1.5,1.5s1.5-0.6,1.5-1.5v-2c0-0.7,0.4-1.3,1.1-1.4
			c1.1-0.3,2.2-1,3.2-1.9c0.5-0.4,1.2-0.5,1.8-0.2l1.7,1c0.7,0.4,1.7,0.1,2-0.6c0.2-0.3,0.2-0.7,0.1-1.1c-0.1-0.4-0.3-0.7-0.7-0.9
			c0,0,0,0,0,0l-1.7-1c-0.6-0.3-0.9-1-0.7-1.7c0.1-0.5,0.1-1.1,0.1-1.8c0-0.7-0.1-1.3-0.2-2c-0.1-0.6,0.2-1.2,0.7-1.5l1.7-1
			c0.3-0.2,0.6-0.5,0.7-0.9c0.1-0.4,0.1-0.8-0.1-1.1c-0.2-0.3-0.5-0.6-0.9-0.7c-0.4-0.1-0.8-0.1-1.1,0.1l-1.7,1
			c-0.6,0.3-1.3,0.3-1.8-0.2c-1-0.9-2-1.5-3.3-1.9c-0.6-0.2-1-0.8-1-1.4v-2c0-0.9-0.6-1.5-1.5-1.5s-1.5,0.6-1.5,1.5v2
			c0,0.7-0.4,1.3-1.1,1.4c-1.1,0.3-2.2,1-3.2,1.9C9.7,10.2,9,10.2,8.4,9.9l-1.7-1C6,8.5,5.2,8.8,4.7,9.6c-0.2,0.3-0.3,0.7-0.2,1
			c0.1,0.4,0.4,0.7,0.7,0.9l1.7,1c0.5,0.3,0.8,0.9,0.7,1.5c-0.1,0.6-0.2,1.4-0.2,2c0,0.6,0.1,1.3,0.2,2c0.1,0.6-0.2,1.2-0.7,1.5
			l-1.7,1c-0.3,0.2-0.6,0.5-0.7,0.9c-0.1,0.4-0.1,0.8,0.1,1.1c0.4,0.7,1.4,0.9,2.1,0.5l1.7-1C8.7,22,8.9,21.9,9.2,21.9z"/>
	</g>
	<g>
		<path class="st0" d="M16,21.5c-3,0-5.5-2.5-5.5-5.5c0-3,2.5-5.5,5.5-5.5c3,0,5.5,2.5,5.5,5.5C21.5,19,19,21.5,16,21.5z M16,13.5
			c-1.4,0-2.5,1.1-2.5,2.5c0,1.4,1.1,2.5,2.5,2.5c1.4,0,2.5-1.1,2.5-2.5C18.5,14.6,17.4,13.5,16,13.5z"/>
	</g>
</g>
</svg>
