<?xml version="1.0" encoding="utf-8"?>
<!-- Generator: Adobe Illustrator 26.0.3, SVG Export Plug-In . SVG Version: 6.00 Build 0)  -->
<svg version="1.1" id="레이어_1" xmlns="http://www.w3.org/2000/svg" xmlns:xlink="http://www.w3.org/1999/xlink" x="0px"
	 y="0px" viewBox="0 0 40 40" style="enable-background:new 0 0 40 40;" xml:space="preserve">
<style type="text/css">
	.st0{fill:#231815;}
</style>
<g>
	<g>
		<path class="st0" d="M26,22H14c-1.1,0-2-0.9-2-2s0.9-2,2-2h12c1.1,0,2,0.9,2,2S27.1,22,26,22z"/>
	</g>
	<g>
		<g>
			<path class="st0" d="M20,4c8.8,0,16,7.2,16,16s-7.2,16-16,16H8c-2.2,0-4-1.8-4-4V20C4,11.2,11.2,4,20,4 M20,0L20,0C9,0,0,9,0,20
				v12c0,4.4,3.6,8,8,8h12c11,0,20-9,20-20l0,0C40,9,31,0,20,0L20,0z"/>
		</g>
	</g>
</g>
</svg>
