<?xml version="1.0" encoding="utf-8"?>
<!-- Generator: Adobe Illustrator 26.0.3, SVG Export Plug-In . SVG Version: 6.00 Build 0)  -->
<svg version="1.1" id="레이어_1" xmlns="http://www.w3.org/2000/svg" xmlns:xlink="http://www.w3.org/1999/xlink" x="0px"
	 y="0px" viewBox="0 0 32 32" style="enable-background:new 0 0 32 32;" xml:space="preserve">
<style type="text/css">
	.st0{fill:#111111;}
</style>
<g>
	<g>
		<g>
			<path class="st0" d="M24,3c2.8,0,5,2.2,5,5v16c0,2.8-2.2,5-5,5H8c-2.8,0-5-2.2-5-5V8c0-2.8,2.2-5,5-5H24 M24,0H8C3.6,0,0,3.6,0,8
				v16c0,4.4,3.6,8,8,8h16c4.4,0,8-3.6,8-8V8C32,3.6,28.4,0,24,0L24,0z"/>
		</g>
	</g>
	<g>
		<path class="st0" d="M14,22c-0.4,0-0.8-0.1-1.1-0.4l-4-4c-0.6-0.6-0.6-1.5,0-2.1s1.5-0.6,2.1,0l2.9,2.9l6.9-6.9
			c0.6-0.6,1.5-0.6,2.1,0c0.6,0.6,0.6,1.5,0,2.1l-8,8C14.8,21.9,14.4,22,14,22z"/>
	</g>
</g>
</svg>
