<?xml version="1.0" encoding="utf-8"?>
<!-- Generator: Adobe Illustrator 26.0.3, SVG Export Plug-In . SVG Version: 6.00 Build 0)  -->
<svg version="1.1" id="레이어_1" xmlns="http://www.w3.org/2000/svg" xmlns:xlink="http://www.w3.org/1999/xlink" x="0px"
	 y="0px" viewBox="0 0 40 40" style="enable-background:new 0 0 40 40;" xml:space="preserve">
<style type="text/css">
	.st0{fill:#101010;}
</style>
<g>
	<path class="st0" d="M20.1,8.1l-19,19C0.4,27.8,0,28.8,0,29.9V38c0,1.1,0.9,2,2,2h8.1c1.1,0,2.1-0.4,2.8-1.2l19-19
		c0.8-0.8,0.8-2,0-2.8l-9-9C22.2,7.3,20.9,7.3,20.1,8.1z"/>
	<path class="st0" d="M27,1.2l-2,2c-0.8,0.8-0.8,2,0,2.8l9,9c0.8,0.8,2,0.8,2.8,0l2-2c1.6-1.6,1.6-4.1,0-5.6l-6.1-6.1
		C31.1-0.4,28.6-0.4,27,1.2z"/>
</g>
</svg>
