<?xml version="1.0" encoding="utf-8"?>
<!-- Generator: Adobe Illustrator 26.0.3, SVG Export Plug-In . SVG Version: 6.00 Build 0)  -->
<svg version="1.1" id="레이어_1" xmlns="http://www.w3.org/2000/svg" xmlns:xlink="http://www.w3.org/1999/xlink" x="0px"
	 y="0px" viewBox="0 0 32 32" style="enable-background:new 0 0 32 32;" xml:space="preserve">
<style type="text/css">
	.st0{fill:#111111;}
</style>
<g>
	<g>
		<path class="st0" d="M8.4,4.5c1.4,0,2.7,0.6,3.7,1.7l1.6,1.7c0.6,0.6,1.4,1,2.2,1c0.8,0,1.6-0.3,2.2-1l1.5-1.6
			c1-1.1,2.5-1.8,4-1.8c1.4,0,2.8,0.6,3.7,1.6c2.2,2.4,2.1,6.3-0.1,8.6L15.9,27L4.9,15.1c-2.2-2.3-2.5-5.8-0.8-8.2
			C5.1,5.4,6.7,4.5,8.4,4.5 M8.4,1.5c-2.5,0-5.1,1.2-6.8,3.7c-2.6,3.7-2,8.7,1.1,12l11.8,12.7c0.4,0.4,0.9,0.6,1.5,0.6
			c0.5,0,1.1-0.2,1.5-0.6l12.1-13c3.3-3.5,3.3-9.1,0.1-12.7c-1.6-1.7-3.7-2.6-5.9-2.6c-2.3,0-4.6,0.9-6.2,2.7l-1.5,1.6l-1.6-1.7
			C12.7,2.4,10.5,1.5,8.4,1.5L8.4,1.5z"/>
	</g>
</g>
</svg>
