<?xml version="1.0" encoding="utf-8"?>
<!-- Generator: Adobe Illustrator 26.0.3, SVG Export Plug-In . SVG Version: 6.00 Build 0)  -->
<svg version="1.1" id="레이어_1" xmlns="http://www.w3.org/2000/svg" xmlns:xlink="http://www.w3.org/1999/xlink" x="0px"
	 y="0px" viewBox="0 0 40 40" style="enable-background:new 0 0 40 40;" xml:space="preserve">
<style type="text/css">
	.st0{fill:#231815;}
</style>
<path class="st0" d="M36.6,10.1L25,1.6C23.5,0.5,21.8,0,20,0s-3.5,0.5-5,1.6L3.4,10.2C1.3,11.7,0,14.3,0,16.9v14.7
	C0,36.2,3.8,40,8.4,40h23.2c4.7,0,8.4-3.8,8.4-8.4V16.9C40,14.2,38.7,11.7,36.6,10.1z M36,31.6c0,2.4-2,4.4-4.4,4.4H22V26
	c0-1.1-0.9-2-2-2s-2,0.9-2,2v10H8.4C6,36,4,34,4,31.6V16.9c0-1.4,0.7-2.7,1.8-3.5l11.6-8.5C18.1,4.3,19,4,20,4s1.9,0.3,2.6,0.9
	l11.6,8.5c1.1,0.8,1.8,2.2,1.8,3.5V31.6z"/>
</svg>
