<?xml version="1.0" encoding="utf-8"?>
<!-- Generator: Adobe Illustrator 26.0.3, SVG Export Plug-In . SVG Version: 6.00 Build 0)  -->
<svg version="1.1" id="레이어_1" xmlns="http://www.w3.org/2000/svg" xmlns:xlink="http://www.w3.org/1999/xlink" x="0px"
	 y="0px" viewBox="0 0 32 32" style="enable-background:new 0 0 32 32;" xml:space="preserve">
<style type="text/css">
	.st0{fill:#111111;}
</style>
<g>
	<g>
		<g>
			<path class="st0" d="M24,3c2.8,0,5,2.3,5,5v10c0,2.8-2.2,5-5,5h-2.1c-1.5,0-2.9,0.7-3.8,1.8L18,25l-0.1,0.2L16,28.1l-1.9-2.9
				L14,25l-0.1-0.1c-1-1.1-2.4-1.8-3.8-1.8H8c-2.8,0-5-2.3-5-5V8c0-2.8,2.2-5,5-5H24 M24,0H8C3.6,0,0,3.6,0,8v10c0,4.4,3.6,8,8,8
				h2.1c0.6,0,1.2,0.3,1.5,0.7l2.9,4.5c0.4,0.5,1,0.7,1.5,0.7s1.1-0.2,1.5-0.7l2.9-4.5c0.4-0.5,0.9-0.7,1.5-0.7H24c4.4,0,8-3.6,8-8
				V8C32,3.6,28.4,0,24,0L24,0z"/>
		</g>
	</g>
	<g>
		<path class="st0" d="M22,12.1H10c-0.8,0-1.5-0.7-1.5-1.5S9.2,9.1,10,9.1h12c0.8,0,1.5,0.7,1.5,1.5S22.8,12.1,22,12.1z"/>
	</g>
	<g>
		<path class="st0" d="M22,18.1H10c-0.8,0-1.5-0.7-1.5-1.5c0-0.8,0.7-1.5,1.5-1.5h12c0.8,0,1.5,0.7,1.5,1.5
			C23.5,17.4,22.8,18.1,22,18.1z"/>
	</g>
</g>
</svg>
