<?xml version="1.0" encoding="utf-8"?>
<!-- Generator: Adobe Illustrator 26.0.3, SVG Export Plug-In . SVG Version: 6.00 Build 0)  -->
<svg version="1.1" id="레이어_1" xmlns="http://www.w3.org/2000/svg" xmlns:xlink="http://www.w3.org/1999/xlink" x="0px"
	 y="0px" viewBox="0 0 32 32" style="enable-background:new 0 0 32 32;" xml:space="preserve">
<style type="text/css">
	.st0{fill:#111111;}
</style>
<path class="st0" d="M24,2H8c-4.4,0-8,3.6-8,8v12c0,4.4,3.6,8,8,8h16c4.4,0,8-3.6,8-8V10C32,5.6,28.4,2,24,2z M8,5h16
	c1.8,0,3.4,1,4.3,2.4l-10.9,7.7c-0.8,0.6-2,0.6-2.8,0L3.7,7.4C4.6,6,6.2,5,8,5z M24,27H8c-2.8,0-5-2.2-5-5V10.5l9.8,7
	c1,0.7,2.1,1,3.2,1c1.1,0,2.2-0.3,3.1-1l9.8-7V22C29,24.8,26.8,27,24,27z"/>
</svg>
