<?xml version="1.0" encoding="utf-8"?>
<!-- Generator: Adobe Illustrator 26.0.3, SVG Export Plug-In . SVG Version: 6.00 Build 0)  -->
<svg version="1.1" id="레이어_1" xmlns="http://www.w3.org/2000/svg" xmlns:xlink="http://www.w3.org/1999/xlink" x="0px"
	 y="0px" viewBox="0 0 32 32" style="enable-background:new 0 0 32 32;" xml:space="preserve">
<style type="text/css">
	.st0{fill:#111111;}
</style>
<g>
	<g>
		<path class="st0" d="M16,11c1.7,0,3,1.3,3,3s-1.3,3-3,3s-3-1.3-3-3S14.3,11,16,11 M16,8c-3.3,0-6,2.7-6,6s2.7,6,6,6s6-2.7,6-6
			S19.3,8,16,8L16,8z"/>
	</g>
	<g>
		<path class="st0" d="M16,3c6.1,0,11,4.9,11,11c0,8.4-8.8,15-11,15S5,22.4,5,14C5,7.9,9.9,3,16,3 M16,0C8.3,0,2,6.3,2,14
			c0,10,10,18,14,18s14-8,14-18C30,6.3,23.7,0,16,0L16,0z"/>
	</g>
</g>
</svg>
