<?xml version="1.0" encoding="utf-8"?>
<!-- Generator: Adobe Illustrator 26.0.3, SVG Export Plug-In . SVG Version: 6.00 Build 0)  -->
<svg version="1.1" id="레이어_1" xmlns="http://www.w3.org/2000/svg" xmlns:xlink="http://www.w3.org/1999/xlink" x="0px"
	 y="0px" viewBox="0 0 32 32" style="enable-background:new 0 0 32 32;" xml:space="preserve">
<style type="text/css">
	.st0{fill:#111111;}
</style>
<g>
	<path class="st0" d="M16,25c5.2,0,9.5-4.3,9.5-9.5v-6C25.5,4.3,21.2,0,16,0S6.5,4.3,6.5,9.5v6C6.5,20.7,10.8,25,16,25z M16,3
		c3.4,0,6.2,2.6,6.5,6H20c-0.8,0-1.5,0.7-1.5,1.5S19.2,12,20,12h2.5v1H20c-0.8,0-1.5,0.7-1.5,1.5S19.2,16,20,16h2.5
		c-0.3,3.4-3.1,6-6.5,6s-6.2-2.6-6.5-6H12c0.8,0,1.5-0.7,1.5-1.5S12.8,13,12,13H9.5v-1H12c0.8,0,1.5-0.7,1.5-1.5S12.8,9,12,9H9.5
		C9.8,5.6,12.6,3,16,3z"/>
	<path class="st0" d="M30.5,15c-0.8,0-1.5,0.7-1.5,1.5C29,23.4,23.4,29,16.5,29h-1C8.6,29,3,23.4,3,16.5C3,15.7,2.3,15,1.5,15
		S0,15.7,0,16.5C0,25,7,32,15.5,32h1C25,32,32,25,32,16.5C32,15.7,31.3,15,30.5,15z"/>
</g>
</svg>
