<?xml version="1.0" encoding="utf-8"?>
<!-- Generator: Adobe Illustrator 26.0.3, SVG Export Plug-In . SVG Version: 6.00 Build 0)  -->
<svg version="1.1" id="레이어_1" xmlns="http://www.w3.org/2000/svg" xmlns:xlink="http://www.w3.org/1999/xlink" x="0px"
	 y="0px" viewBox="0 0 32 32" style="enable-background:new 0 0 32 32;" xml:space="preserve">
<style type="text/css">
	.st0{fill:#111111;}
</style>
<path class="st0" d="M32,23.5c0-2.3-0.9-4.4-2.3-5.9c0,0,0-0.1,0-0.1v-4C29.7,6.1,23.6,0,16.2,0C8.8,0,2.7,6.1,2.7,13.5v3.7
	C1,18.8,0,21,0,23.5C0,28.3,3.7,32,8.5,32c0.8,0,1.5-0.7,1.5-1.5v-14c0-0.8-0.7-1.5-1.5-1.5c-1,0-1.9,0.2-2.8,0.5v-2
	C5.7,7.7,10.4,3,16.2,3C22,3,26.7,7.7,26.7,13.5v2.1c-1-0.4-2.1-0.6-3.2-0.6c-0.8,0-1.5,0.7-1.5,1.5V29h-4c-0.8,0-1.5,0.7-1.5,1.5
	S17.2,32,18,32h6c0.1,0,0.2,0,0.3,0C28.7,31.6,32,28,32,23.5z M7,28.8c-2.3-0.6-4-2.7-4-5.3s1.7-4.7,4-5.3V28.8z M25,28.8V18.2
	c2.3,0.6,4,2.7,4,5.3S27.3,28.2,25,28.8z"/>
</svg>
