<?xml version="1.0" encoding="utf-8"?>
<!-- Generator: Adobe Illustrator 26.0.3, SVG Export Plug-In . SVG Version: 6.00 Build 0)  -->
<svg version="1.1" id="레이어_1" xmlns="http://www.w3.org/2000/svg" xmlns:xlink="http://www.w3.org/1999/xlink" x="0px"
	 y="0px" viewBox="0 0 40 40" style="enable-background:new 0 0 40 40;" xml:space="preserve">
<style type="text/css">
	.st0{fill:#101111;}
</style>
<path class="st0" d="M39.4,36.6L28.6,25.8c2.1-2.7,3.4-6.1,3.4-9.8c0-8.8-7.2-16-16-16S0,7.2,0,16s7.2,16,16,16
	c3.7,0,7.1-1.3,9.8-3.4l10.8,10.8C37,39.8,37.5,40,38,40s1-0.2,1.4-0.6C40.2,38.6,40.2,37.4,39.4,36.6z M4,16C4,9.4,9.4,4,16,4
	c6.6,0,12,5.4,12,12c0,6.6-5.4,12-12,12C9.4,28,4,22.6,4,16z"/>
</svg>
