<?xml version="1.0" encoding="utf-8"?>
<!-- Generator: Adobe Illustrator 26.0.3, SVG Export Plug-In . SVG Version: 6.00 Build 0)  -->
<svg version="1.1" id="레이어_1" xmlns="http://www.w3.org/2000/svg" xmlns:xlink="http://www.w3.org/1999/xlink" x="0px"
	 y="0px" viewBox="0 0 40 40" style="enable-background:new 0 0 40 40;" xml:space="preserve">
<style type="text/css">
	.st0{fill:#231815;}
</style>
<g>
	<g>
		<path class="st0" d="M16,22c-1.1,0-2-0.9-2-2v-4c0-1.1,0.9-2,2-2s2,0.9,2,2v4C18,21.1,17.1,22,16,22z"/>
	</g>
	<g>
		<path class="st0" d="M24,22c-1.1,0-2-0.9-2-2v-4c0-1.1,0.9-2,2-2s2,0.9,2,2v4C26,21.1,25.1,22,24,22z"/>
	</g>
	<g>
		<g>
			<path class="st0" d="M20,4c8.8,0,16,7.2,16,16s-7.2,16-16,16S4,28.8,4,20S11.2,4,20,4 M20,0L20,0C9,0,0,9,0,20l0,0
				c0,11,9,20,20,20l0,0c11,0,20-9,20-20l0,0C40,9,31,0,20,0L20,0z"/>
		</g>
	</g>
</g>
</svg>
